<mxfile host="app.diagrams.net" modified="2020-11-05T10:47:30.746Z" agent="5.0 (Macintosh; Intel Mac OS X 10_15_6) AppleWebKit/537.36 (KHTML, like Gecko) Chrome/85.0.4183.83 Safari/537.36" etag="qKO_BvxYP50y6PvIMQmV" version="13.8.0" type="github">
  <diagram name="Page-1" id="2a216829-ef6e-dabb-86c1-c78162f3ba2b">
    <mxGraphModel dx="1298" dy="1882" grid="1" gridSize="10" guides="1" tooltips="1" connect="1" arrows="1" fold="1" page="1" pageScale="1" pageWidth="850" pageHeight="1100" background="#ffffff" math="0" shadow="0">
      <root>
        <mxCell id="0" />
        <mxCell id="1" parent="0" />
        <mxCell id="4NEy2AXO_T3ACagM7eKn-3" value="Overall Teaching Process" style="swimlane;html=1;childLayout=stackLayout;resizeParent=1;resizeParentMax=0;horizontal=0;startSize=20;horizontalStack=0;" vertex="1" parent="1">
          <mxGeometry x="150" y="180" width="1520" height="500" as="geometry" />
        </mxCell>
        <mxCell id="4NEy2AXO_T3ACagM7eKn-4" value="NTNU" style="swimlane;html=1;startSize=20;horizontal=0;" vertex="1" parent="4NEy2AXO_T3ACagM7eKn-3">
          <mxGeometry x="20" width="1500" height="500" as="geometry" />
        </mxCell>
        <mxCell id="4NEy2AXO_T3ACagM7eKn-8" value="Faculty" style="swimlane;startSize=20;horizontal=0;" vertex="1" parent="4NEy2AXO_T3ACagM7eKn-4">
          <mxGeometry x="20" width="1420" height="320" as="geometry" />
        </mxCell>
        <mxCell id="4NEy2AXO_T3ACagM7eKn-11" value="Lecturer" style="swimlane;startSize=20;horizontal=0;" vertex="1" parent="4NEy2AXO_T3ACagM7eKn-8">
          <mxGeometry x="20" width="1400" height="200" as="geometry" />
        </mxCell>
        <mxCell id="4NEy2AXO_T3ACagM7eKn-66" style="edgeStyle=orthogonalEdgeStyle;rounded=0;orthogonalLoop=1;jettySize=auto;html=1;entryX=0;entryY=0.5;entryDx=0;entryDy=0;endArrow=block;endFill=1;" edge="1" parent="4NEy2AXO_T3ACagM7eKn-11" source="4NEy2AXO_T3ACagM7eKn-50" target="4NEy2AXO_T3ACagM7eKn-63">
          <mxGeometry relative="1" as="geometry" />
        </mxCell>
        <mxCell id="4NEy2AXO_T3ACagM7eKn-50" value="&lt;span style=&quot;font-family: &amp;#34;helvetica neue&amp;#34;&quot;&gt;Perform lecture&lt;br&gt;&lt;/span&gt;" style="html=1;whiteSpace=wrap;rounded=1;dropTarget=0;" vertex="1" parent="4NEy2AXO_T3ACagM7eKn-11">
          <mxGeometry x="770" y="60" width="120" height="80" as="geometry" />
        </mxCell>
        <mxCell id="4NEy2AXO_T3ACagM7eKn-51" value="" style="html=1;shape=mxgraph.bpmn.user_task;outlineConnect=0;" vertex="1" parent="4NEy2AXO_T3ACagM7eKn-50">
          <mxGeometry width="14" height="14" relative="1" as="geometry">
            <mxPoint x="7" y="7" as="offset" />
          </mxGeometry>
        </mxCell>
        <mxCell id="4NEy2AXO_T3ACagM7eKn-52" value="" style="html=1;shape=plus;outlineConnect=0;" vertex="1" parent="4NEy2AXO_T3ACagM7eKn-50">
          <mxGeometry x="0.5" y="1" width="14" height="14" relative="1" as="geometry">
            <mxPoint x="-7" y="-14" as="offset" />
          </mxGeometry>
        </mxCell>
        <mxCell id="4NEy2AXO_T3ACagM7eKn-54" style="edgeStyle=orthogonalEdgeStyle;rounded=0;orthogonalLoop=1;jettySize=auto;html=1;entryX=0;entryY=0.5;entryDx=0;entryDy=0;endArrow=block;endFill=1;" edge="1" parent="4NEy2AXO_T3ACagM7eKn-11" source="4NEy2AXO_T3ACagM7eKn-43" target="4NEy2AXO_T3ACagM7eKn-50">
          <mxGeometry relative="1" as="geometry" />
        </mxCell>
        <mxCell id="4NEy2AXO_T3ACagM7eKn-43" value="&lt;span style=&quot;font-family: &amp;#34;helvetica neue&amp;#34;&quot;&gt;Evaluate Reference&amp;nbsp;&lt;br&gt;Group&lt;br&gt;&lt;/span&gt;" style="html=1;whiteSpace=wrap;rounded=1;dropTarget=0;" vertex="1" parent="4NEy2AXO_T3ACagM7eKn-11">
          <mxGeometry x="520" y="60" width="120" height="80" as="geometry" />
        </mxCell>
        <mxCell id="4NEy2AXO_T3ACagM7eKn-44" value="" style="html=1;shape=mxgraph.bpmn.user_task;outlineConnect=0;" vertex="1" parent="4NEy2AXO_T3ACagM7eKn-43">
          <mxGeometry width="14" height="14" relative="1" as="geometry">
            <mxPoint x="7" y="7" as="offset" />
          </mxGeometry>
        </mxCell>
        <mxCell id="4NEy2AXO_T3ACagM7eKn-45" value="" style="html=1;shape=plus;outlineConnect=0;" vertex="1" parent="4NEy2AXO_T3ACagM7eKn-43">
          <mxGeometry x="0.5" y="1" width="14" height="14" relative="1" as="geometry">
            <mxPoint x="-7" y="-14" as="offset" />
          </mxGeometry>
        </mxCell>
        <mxCell id="4NEy2AXO_T3ACagM7eKn-49" style="edgeStyle=orthogonalEdgeStyle;rounded=0;orthogonalLoop=1;jettySize=auto;html=1;entryX=0;entryY=0.5;entryDx=0;entryDy=0;endArrow=block;endFill=1;" edge="1" parent="4NEy2AXO_T3ACagM7eKn-11" source="4NEy2AXO_T3ACagM7eKn-32" target="4NEy2AXO_T3ACagM7eKn-43">
          <mxGeometry relative="1" as="geometry" />
        </mxCell>
        <mxCell id="4NEy2AXO_T3ACagM7eKn-32" value="&lt;span style=&quot;font-family: &amp;#34;helvetica neue&amp;#34;&quot;&gt;Evaluate teaching assistant applications&lt;/span&gt;" style="html=1;whiteSpace=wrap;rounded=1;dropTarget=0;" vertex="1" parent="4NEy2AXO_T3ACagM7eKn-11">
          <mxGeometry x="330" y="60" width="130" height="80" as="geometry" />
        </mxCell>
        <mxCell id="4NEy2AXO_T3ACagM7eKn-33" value="" style="html=1;shape=mxgraph.bpmn.user_task;outlineConnect=0;" vertex="1" parent="4NEy2AXO_T3ACagM7eKn-32">
          <mxGeometry width="14" height="14" relative="1" as="geometry">
            <mxPoint x="7" y="7" as="offset" />
          </mxGeometry>
        </mxCell>
        <mxCell id="4NEy2AXO_T3ACagM7eKn-34" value="" style="html=1;shape=plus;outlineConnect=0;" vertex="1" parent="4NEy2AXO_T3ACagM7eKn-32">
          <mxGeometry x="0.5" y="1" width="14" height="14" relative="1" as="geometry">
            <mxPoint x="-7" y="-14" as="offset" />
          </mxGeometry>
        </mxCell>
        <mxCell id="4NEy2AXO_T3ACagM7eKn-37" style="edgeStyle=orthogonalEdgeStyle;rounded=0;orthogonalLoop=1;jettySize=auto;html=1;entryX=0;entryY=0.5;entryDx=0;entryDy=0;endArrow=block;endFill=1;" edge="1" parent="4NEy2AXO_T3ACagM7eKn-11" source="4NEy2AXO_T3ACagM7eKn-20" target="4NEy2AXO_T3ACagM7eKn-32">
          <mxGeometry relative="1" as="geometry" />
        </mxCell>
        <mxCell id="4NEy2AXO_T3ACagM7eKn-20" value="&lt;span style=&quot;font-family: &amp;#34;helvetica neue&amp;#34;&quot;&gt;Register course semester plan&lt;/span&gt;" style="html=1;whiteSpace=wrap;rounded=1;dropTarget=0;" vertex="1" parent="4NEy2AXO_T3ACagM7eKn-11">
          <mxGeometry x="130" y="60" width="120" height="80" as="geometry" />
        </mxCell>
        <mxCell id="4NEy2AXO_T3ACagM7eKn-21" value="" style="html=1;shape=mxgraph.bpmn.user_task;outlineConnect=0;" vertex="1" parent="4NEy2AXO_T3ACagM7eKn-20">
          <mxGeometry width="14" height="14" relative="1" as="geometry">
            <mxPoint x="7" y="7" as="offset" />
          </mxGeometry>
        </mxCell>
        <mxCell id="4NEy2AXO_T3ACagM7eKn-22" value="" style="html=1;shape=plus;outlineConnect=0;" vertex="1" parent="4NEy2AXO_T3ACagM7eKn-20">
          <mxGeometry x="0.5" y="1" width="14" height="14" relative="1" as="geometry">
            <mxPoint x="-7" y="-14" as="offset" />
          </mxGeometry>
        </mxCell>
        <mxCell id="4NEy2AXO_T3ACagM7eKn-23" style="edgeStyle=orthogonalEdgeStyle;rounded=0;orthogonalLoop=1;jettySize=auto;html=1;entryX=0;entryY=0.5;entryDx=0;entryDy=0;endArrow=block;endFill=1;" edge="1" parent="4NEy2AXO_T3ACagM7eKn-11" source="4NEy2AXO_T3ACagM7eKn-14" target="4NEy2AXO_T3ACagM7eKn-20">
          <mxGeometry relative="1" as="geometry" />
        </mxCell>
        <mxCell id="4NEy2AXO_T3ACagM7eKn-14" value="" style="shape=mxgraph.bpmn.shape;html=1;verticalLabelPosition=bottom;labelBackgroundColor=#ffffff;verticalAlign=top;align=center;perimeter=ellipsePerimeter;outlineConnect=0;outline=standard;symbol=general;" vertex="1" parent="4NEy2AXO_T3ACagM7eKn-11">
          <mxGeometry x="40" y="75" width="50" height="50" as="geometry" />
        </mxCell>
        <mxCell id="4NEy2AXO_T3ACagM7eKn-63" value="&lt;span style=&quot;font-family: &amp;#34;helvetica neue&amp;#34;&quot;&gt;Evaluate&amp;nbsp;&lt;br&gt;Course assignment&lt;br&gt;&lt;/span&gt;" style="html=1;whiteSpace=wrap;rounded=1;dropTarget=0;" vertex="1" parent="4NEy2AXO_T3ACagM7eKn-11">
          <mxGeometry x="1065" y="60" width="120" height="80" as="geometry" />
        </mxCell>
        <mxCell id="4NEy2AXO_T3ACagM7eKn-64" value="" style="html=1;shape=mxgraph.bpmn.user_task;outlineConnect=0;" vertex="1" parent="4NEy2AXO_T3ACagM7eKn-63">
          <mxGeometry width="14" height="14" relative="1" as="geometry">
            <mxPoint x="7" y="7" as="offset" />
          </mxGeometry>
        </mxCell>
        <mxCell id="4NEy2AXO_T3ACagM7eKn-65" value="" style="html=1;shape=plus;outlineConnect=0;" vertex="1" parent="4NEy2AXO_T3ACagM7eKn-63">
          <mxGeometry x="0.5" y="1" width="14" height="14" relative="1" as="geometry">
            <mxPoint x="-7" y="-14" as="offset" />
          </mxGeometry>
        </mxCell>
        <mxCell id="4NEy2AXO_T3ACagM7eKn-12" value="Teaching Assistant" style="swimlane;startSize=20;horizontal=0;" vertex="1" parent="4NEy2AXO_T3ACagM7eKn-8">
          <mxGeometry x="20" y="200" width="780" height="120" as="geometry" />
        </mxCell>
        <mxCell id="4NEy2AXO_T3ACagM7eKn-9" value="Administration" style="swimlane;startSize=20;horizontal=0;" vertex="1" parent="4NEy2AXO_T3ACagM7eKn-4">
          <mxGeometry x="20" y="320" width="580" height="180" as="geometry" />
        </mxCell>
        <mxCell id="4NEy2AXO_T3ACagM7eKn-13" value="Student" style="swimlane;startSize=20;horizontal=0;" vertex="1" parent="1">
          <mxGeometry x="147.5" y="-380" width="1742.5" height="200" as="geometry" />
        </mxCell>
        <mxCell id="4NEy2AXO_T3ACagM7eKn-18" value="FSWeb" style="swimlane;startSize=20;horizontal=0;" vertex="1" parent="1">
          <mxGeometry x="147.5" y="-60" width="305" height="150" as="geometry" />
        </mxCell>
        <mxCell id="4NEy2AXO_T3ACagM7eKn-19" value="" style="startArrow=oval;startFill=0;startSize=7;endArrow=block;endFill=0;endSize=10;dashed=1;html=1;exitX=0.5;exitY=0;exitDx=0;exitDy=0;" edge="1" parent="1" source="4NEy2AXO_T3ACagM7eKn-20">
          <mxGeometry width="100" relative="1" as="geometry">
            <mxPoint x="400" y="240" as="sourcePoint" />
            <mxPoint x="400" y="90" as="targetPoint" />
          </mxGeometry>
        </mxCell>
        <mxCell id="4NEy2AXO_T3ACagM7eKn-24" value="Course plan" style="edgeLabel;html=1;align=center;verticalAlign=middle;resizable=0;points=[];" vertex="1" connectable="0" parent="4NEy2AXO_T3ACagM7eKn-19">
          <mxGeometry x="0.4667" y="-3" relative="1" as="geometry">
            <mxPoint as="offset" />
          </mxGeometry>
        </mxCell>
        <mxCell id="4NEy2AXO_T3ACagM7eKn-25" value="" style="startArrow=oval;startFill=0;startSize=7;endArrow=block;endFill=0;endSize=10;dashed=1;html=1;" edge="1" parent="1">
          <mxGeometry width="100" relative="1" as="geometry">
            <mxPoint x="221" y="-180" as="sourcePoint" />
            <mxPoint x="224" y="-60" as="targetPoint" />
          </mxGeometry>
        </mxCell>
        <mxCell id="4NEy2AXO_T3ACagM7eKn-26" value="Course registration" style="edgeLabel;html=1;align=center;verticalAlign=middle;resizable=0;points=[];" vertex="1" connectable="0" parent="4NEy2AXO_T3ACagM7eKn-25">
          <mxGeometry x="-0.5455" relative="1" as="geometry">
            <mxPoint y="63.010000000000005" as="offset" />
          </mxGeometry>
        </mxCell>
        <mxCell id="4NEy2AXO_T3ACagM7eKn-27" value="Email client" style="swimlane;startSize=20;horizontal=0;" vertex="1" parent="1">
          <mxGeometry x="487.5" y="-60" width="422.5" height="150" as="geometry" />
        </mxCell>
        <mxCell id="4NEy2AXO_T3ACagM7eKn-28" value="" style="startArrow=oval;startFill=0;startSize=7;endArrow=block;endFill=0;endSize=10;dashed=1;html=1;" edge="1" parent="1">
          <mxGeometry width="100" relative="1" as="geometry">
            <mxPoint x="330" y="-180" as="sourcePoint" />
            <mxPoint x="330" y="-60" as="targetPoint" />
          </mxGeometry>
        </mxCell>
        <mxCell id="4NEy2AXO_T3ACagM7eKn-29" value="Course unregistration" style="edgeLabel;html=1;align=center;verticalAlign=middle;resizable=0;points=[];" vertex="1" connectable="0" parent="4NEy2AXO_T3ACagM7eKn-28">
          <mxGeometry x="-0.5455" relative="1" as="geometry">
            <mxPoint y="63" as="offset" />
          </mxGeometry>
        </mxCell>
        <mxCell id="4NEy2AXO_T3ACagM7eKn-30" value="" style="startArrow=oval;startFill=0;startSize=7;endArrow=block;endFill=0;endSize=10;dashed=1;html=1;" edge="1" parent="1">
          <mxGeometry width="100" relative="1" as="geometry">
            <mxPoint x="540" y="-180" as="sourcePoint" />
            <mxPoint x="540" y="-60" as="targetPoint" />
          </mxGeometry>
        </mxCell>
        <mxCell id="4NEy2AXO_T3ACagM7eKn-31" value="Teaching Assistant &lt;br&gt;Application" style="edgeLabel;html=1;align=center;verticalAlign=middle;resizable=0;points=[];" vertex="1" connectable="0" parent="4NEy2AXO_T3ACagM7eKn-30">
          <mxGeometry x="-0.5455" relative="1" as="geometry">
            <mxPoint y="53" as="offset" />
          </mxGeometry>
        </mxCell>
        <mxCell id="4NEy2AXO_T3ACagM7eKn-35" value="Teaching Assistant &lt;br&gt;Result" style="startArrow=oval;startFill=0;startSize=7;endArrow=block;endFill=0;endSize=10;dashed=1;html=1;exitX=0.75;exitY=0;exitDx=0;exitDy=0;" edge="1" parent="1" source="4NEy2AXO_T3ACagM7eKn-32">
          <mxGeometry x="0.4545" y="10" width="100" relative="1" as="geometry">
            <mxPoint x="610" y="140" as="sourcePoint" />
            <mxPoint x="638" y="90" as="targetPoint" />
            <mxPoint as="offset" />
          </mxGeometry>
        </mxCell>
        <mxCell id="4NEy2AXO_T3ACagM7eKn-36" value="Teaching Assistant &lt;br&gt;Result" style="startArrow=oval;startFill=0;startSize=7;endArrow=block;endFill=0;endSize=10;dashed=1;html=1;" edge="1" parent="1">
          <mxGeometry x="0.5" width="100" relative="1" as="geometry">
            <mxPoint x="631" y="-60" as="sourcePoint" />
            <mxPoint x="631" y="-180" as="targetPoint" />
            <mxPoint as="offset" />
          </mxGeometry>
        </mxCell>
        <mxCell id="4NEy2AXO_T3ACagM7eKn-38" value="" style="startArrow=oval;startFill=0;startSize=7;endArrow=block;endFill=0;endSize=10;dashed=1;html=1;" edge="1" parent="1">
          <mxGeometry width="100" relative="1" as="geometry">
            <mxPoint x="560" y="90" as="sourcePoint" />
            <mxPoint x="560" y="240" as="targetPoint" />
          </mxGeometry>
        </mxCell>
        <mxCell id="4NEy2AXO_T3ACagM7eKn-39" value="Teaching Assistant&lt;br&gt;&amp;nbsp;Application" style="edgeLabel;html=1;align=center;verticalAlign=middle;resizable=0;points=[];" vertex="1" connectable="0" parent="4NEy2AXO_T3ACagM7eKn-38">
          <mxGeometry x="-0.5455" relative="1" as="geometry">
            <mxPoint y="76.03" as="offset" />
          </mxGeometry>
        </mxCell>
        <mxCell id="4NEy2AXO_T3ACagM7eKn-40" value="" style="startArrow=oval;startFill=0;startSize=7;endArrow=block;endFill=0;endSize=10;dashed=1;html=1;" edge="1" parent="1">
          <mxGeometry width="100" relative="1" as="geometry">
            <mxPoint x="740" y="-180" as="sourcePoint" />
            <mxPoint x="740" y="-60" as="targetPoint" />
          </mxGeometry>
        </mxCell>
        <mxCell id="4NEy2AXO_T3ACagM7eKn-41" value="Reference Group&amp;nbsp;&lt;br&gt;Application" style="edgeLabel;html=1;align=center;verticalAlign=middle;resizable=0;points=[];" vertex="1" connectable="0" parent="4NEy2AXO_T3ACagM7eKn-40">
          <mxGeometry x="-0.5455" relative="1" as="geometry">
            <mxPoint y="53" as="offset" />
          </mxGeometry>
        </mxCell>
        <mxCell id="4NEy2AXO_T3ACagM7eKn-42" value="Reference Group&amp;nbsp;&lt;br&gt;Result" style="startArrow=oval;startFill=0;startSize=7;endArrow=block;endFill=0;endSize=10;dashed=1;html=1;" edge="1" parent="1">
          <mxGeometry x="0.5" width="100" relative="1" as="geometry">
            <mxPoint x="831" y="-60" as="sourcePoint" />
            <mxPoint x="831" y="-180" as="targetPoint" />
            <mxPoint as="offset" />
          </mxGeometry>
        </mxCell>
        <mxCell id="4NEy2AXO_T3ACagM7eKn-46" value="Reference Group&amp;nbsp;&lt;br&gt;Result" style="startArrow=oval;startFill=0;startSize=7;endArrow=block;endFill=0;endSize=10;dashed=1;html=1;exitX=0.75;exitY=0;exitDx=0;exitDy=0;" edge="1" parent="1">
          <mxGeometry x="0.4667" width="100" relative="1" as="geometry">
            <mxPoint x="827.5" y="240" as="sourcePoint" />
            <mxPoint x="828" y="90" as="targetPoint" />
            <mxPoint as="offset" />
          </mxGeometry>
        </mxCell>
        <mxCell id="4NEy2AXO_T3ACagM7eKn-47" value="" style="startArrow=oval;startFill=0;startSize=7;endArrow=block;endFill=0;endSize=10;dashed=1;html=1;" edge="1" parent="1">
          <mxGeometry width="100" relative="1" as="geometry">
            <mxPoint x="750" y="90" as="sourcePoint" />
            <mxPoint x="750" y="240" as="targetPoint" />
          </mxGeometry>
        </mxCell>
        <mxCell id="4NEy2AXO_T3ACagM7eKn-48" value="Reference Group&lt;br&gt;Application" style="edgeLabel;html=1;align=center;verticalAlign=middle;resizable=0;points=[];" vertex="1" connectable="0" parent="4NEy2AXO_T3ACagM7eKn-47">
          <mxGeometry x="-0.5455" relative="1" as="geometry">
            <mxPoint y="76.03" as="offset" />
          </mxGeometry>
        </mxCell>
        <mxCell id="4NEy2AXO_T3ACagM7eKn-53" value="Streaming Platform" style="swimlane;startSize=20;horizontal=0;" vertex="1" parent="1">
          <mxGeometry x="940" y="-60" width="190" height="150" as="geometry" />
        </mxCell>
        <mxCell id="4NEy2AXO_T3ACagM7eKn-55" value="Video stream of lecture" style="startArrow=oval;startFill=0;startSize=7;endArrow=block;endFill=0;endSize=10;dashed=1;html=1;exitX=0.5;exitY=0;exitDx=0;exitDy=0;" edge="1" parent="1" source="4NEy2AXO_T3ACagM7eKn-50">
          <mxGeometry x="0.6" width="100" relative="1" as="geometry">
            <mxPoint x="837.5" y="250" as="sourcePoint" />
            <mxPoint x="1040" y="90" as="targetPoint" />
            <mxPoint as="offset" />
          </mxGeometry>
        </mxCell>
        <mxCell id="4NEy2AXO_T3ACagM7eKn-56" value="" style="startArrow=oval;startFill=0;startSize=7;endArrow=block;endFill=0;endSize=10;dashed=1;html=1;" edge="1" parent="1">
          <mxGeometry width="100" relative="1" as="geometry">
            <mxPoint x="1070" y="-180" as="sourcePoint" />
            <mxPoint x="1070" y="-60" as="targetPoint" />
          </mxGeometry>
        </mxCell>
        <mxCell id="4NEy2AXO_T3ACagM7eKn-57" value="Lecture attendance notice" style="edgeLabel;html=1;align=center;verticalAlign=middle;resizable=0;points=[];" vertex="1" connectable="0" parent="4NEy2AXO_T3ACagM7eKn-56">
          <mxGeometry x="0.55" y="2" relative="1" as="geometry">
            <mxPoint as="offset" />
          </mxGeometry>
        </mxCell>
        <mxCell id="4NEy2AXO_T3ACagM7eKn-58" value="Blackboard" style="swimlane;startSize=20;horizontal=0;" vertex="1" parent="1">
          <mxGeometry x="1170" y="-60" width="330" height="150" as="geometry" />
        </mxCell>
        <mxCell id="4NEy2AXO_T3ACagM7eKn-59" value="Lecture video" style="startArrow=oval;startFill=0;startSize=7;endArrow=block;endFill=0;endSize=10;dashed=1;html=1;exitX=0.75;exitY=0;exitDx=0;exitDy=0;edgeStyle=orthogonalEdgeStyle;" edge="1" parent="1" source="4NEy2AXO_T3ACagM7eKn-50">
          <mxGeometry x="0.7983" width="100" relative="1" as="geometry">
            <mxPoint x="1050" y="250" as="sourcePoint" />
            <mxPoint x="1210" y="90" as="targetPoint" />
            <mxPoint as="offset" />
            <Array as="points">
              <mxPoint x="1070" y="140" />
              <mxPoint x="1210" y="140" />
            </Array>
          </mxGeometry>
        </mxCell>
        <mxCell id="4NEy2AXO_T3ACagM7eKn-67" value="Assignment evaluation" style="startArrow=oval;startFill=0;startSize=7;endArrow=block;endFill=0;endSize=10;dashed=1;html=1;exitX=0.75;exitY=0;exitDx=0;exitDy=0;" edge="1" parent="1" source="4NEy2AXO_T3ACagM7eKn-63">
          <mxGeometry x="0.6" width="100" relative="1" as="geometry">
            <mxPoint x="1050" y="250" as="sourcePoint" />
            <mxPoint x="1365" y="90" as="targetPoint" />
            <mxPoint as="offset" />
          </mxGeometry>
        </mxCell>
        <mxCell id="4NEy2AXO_T3ACagM7eKn-68" value="Assignment" style="startArrow=oval;startFill=0;startSize=7;endArrow=block;endFill=0;endSize=10;dashed=1;html=1;entryX=0.25;entryY=0;entryDx=0;entryDy=0;" edge="1" parent="1" target="4NEy2AXO_T3ACagM7eKn-63">
          <mxGeometry x="0.6" width="100" relative="1" as="geometry">
            <mxPoint x="1305" y="90" as="sourcePoint" />
            <mxPoint x="1375" y="100" as="targetPoint" />
            <mxPoint as="offset" />
          </mxGeometry>
        </mxCell>
        <mxCell id="4NEy2AXO_T3ACagM7eKn-69" value="" style="startArrow=oval;startFill=0;startSize=7;endArrow=block;endFill=0;endSize=10;dashed=1;html=1;" edge="1" parent="1">
          <mxGeometry width="100" relative="1" as="geometry">
            <mxPoint x="1240" y="-60" as="sourcePoint" />
            <mxPoint x="1240" y="-180" as="targetPoint" />
          </mxGeometry>
        </mxCell>
        <mxCell id="4NEy2AXO_T3ACagM7eKn-70" value="Assignment &lt;br&gt;Deliverable" style="edgeLabel;html=1;align=center;verticalAlign=middle;resizable=0;points=[];" vertex="1" connectable="0" parent="4NEy2AXO_T3ACagM7eKn-69">
          <mxGeometry x="0.55" y="2" relative="1" as="geometry">
            <mxPoint as="offset" />
          </mxGeometry>
        </mxCell>
        <mxCell id="4NEy2AXO_T3ACagM7eKn-71" value="" style="startArrow=oval;startFill=0;startSize=7;endArrow=block;endFill=0;endSize=10;dashed=1;html=1;" edge="1" parent="1">
          <mxGeometry width="100" relative="1" as="geometry">
            <mxPoint x="1320" y="-180" as="sourcePoint" />
            <mxPoint x="1320" y="-60" as="targetPoint" />
          </mxGeometry>
        </mxCell>
        <mxCell id="4NEy2AXO_T3ACagM7eKn-73" value="Assignment" style="edgeLabel;html=1;align=center;verticalAlign=middle;resizable=0;points=[];" vertex="1" connectable="0" parent="4NEy2AXO_T3ACagM7eKn-71">
          <mxGeometry x="0.4167" y="-4" relative="1" as="geometry">
            <mxPoint as="offset" />
          </mxGeometry>
        </mxCell>
        <mxCell id="4NEy2AXO_T3ACagM7eKn-74" value="" style="startArrow=oval;startFill=0;startSize=7;endArrow=block;endFill=0;endSize=10;dashed=1;html=1;" edge="1" parent="1">
          <mxGeometry width="100" relative="1" as="geometry">
            <mxPoint x="1420" y="-60" as="sourcePoint" />
            <mxPoint x="1420" y="-180" as="targetPoint" />
          </mxGeometry>
        </mxCell>
        <mxCell id="4NEy2AXO_T3ACagM7eKn-75" value="Assignment evaluation" style="edgeLabel;html=1;align=center;verticalAlign=middle;resizable=0;points=[];" vertex="1" connectable="0" parent="4NEy2AXO_T3ACagM7eKn-74">
          <mxGeometry x="0.4167" y="-4" relative="1" as="geometry">
            <mxPoint y="-5" as="offset" />
          </mxGeometry>
        </mxCell>
        <mxCell id="4NEy2AXO_T3ACagM7eKn-76" value="Examination" style="swimlane;startSize=20;horizontal=0;" vertex="1" parent="1">
          <mxGeometry x="1560" y="-60" width="330" height="150" as="geometry" />
        </mxCell>
      </root>
    </mxGraphModel>
  </diagram>
</mxfile>
